<svg xmlns="http://www.w3.org/2000/svg" viewBox="0 0 102.84 121.68">
    <path d="M39.4 60.84A15.55 15.55 0 0 1 55 45.28H38.85a7.08 7.08 0 1 1-.53-14.15h38.53A15.56 15.56 0 0 0 76.82 0h-38a38.2 38.2 0 0 0-1.24 76.4H55a15.56 15.56 0 0 1-15.6-15.56z" fill="#ffd100"></path>
    <path d="M44.11 106.12a15.55 15.55 0 0 1 15.54-15.56h-33a15.56 15.56 0 0 0 0 31.12h33a15.57 15.57 0 0 1-15.54-15.56z" fill="#f0f"></path>
    <path d="M64.65 45.28H55a15.56 15.56 0 0 1 0 31.12h9.68a7.08 7.08 0 0 1 0 14.16h-5a15.56 15.56 0 0 1 0 31.12h5a38.2 38.2 0 0 0 0-76.4z" fill="#00d5ff"></path>
    <path d="M70.52 60.84A15.56 15.56 0 1 0 55 76.4a15.56 15.56 0 0 0 15.52-15.56z" fill="#45ae17"></path>
    <path d="M75.22 106.12a15.56 15.56 0 1 0-15.57 15.56 15.56 15.56 0 0 0 15.57-15.56z" fill="#2300fd"></path>
</svg>